<svg width="16" height="16" viewBox="0 0 16 16" fill="none" xmlns="http://www.w3.org/2000/svg">
<path fill-rule="evenodd" clip-rule="evenodd" d="M15.4772 14.5635L11.6029 10.6059C12.5987 9.44256 13.1441 7.97889 13.1439 6.45524C13.1433 2.89538 10.1949 -0.000425123 6.57143 0.000159832C2.948 0.000744787 0.000467567 2.8975 0.00104226 6.45736C0.00161695 10.0172 2.95008 12.913 6.57351 12.9124C7.9338 12.9122 9.23002 12.5089 10.3382 11.7436L14.242 15.7311C14.4051 15.8976 14.6246 15.9893 14.8597 15.9893C15.0823 15.9892 15.2934 15.9058 15.4537 15.7542C15.7942 15.4322 15.805 14.8983 15.4772 14.5635ZM6.5717 1.68437C9.24999 1.68394 11.4292 3.82422 11.4296 6.45552C11.43 9.08682 9.25153 11.2278 6.57324 11.2282C3.89496 11.2287 1.71575 9.08838 1.71533 6.45709C1.7149 3.82579 3.89341 1.6848 6.5717 1.68437Z" fill="white" fill-opacity="0.8"/>
</svg>
